<svg xmlns="http://www.w3.org/2000/svg" xmlns:xlink="http://www.w3.org/1999/xlink" width="1400" zoomAndPan="magnify" viewBox="0 0 1050 374.999991" height="500" preserveAspectRatio="xMidYMid meet" version="1.0"><defs><clipPath id="f4d19b11be"><path d="M 191 0 L 628 0 L 628 375 L 191 375 Z M 191 0 " clip-rule="nonzero"/></clipPath><clipPath id="c19b50a7ed"><path d="M 592.675781 -148.675781 L 634.40625 -117.292969 L 226.953125 424.554688 L 185.222656 393.175781 Z M 592.675781 -148.675781 " clip-rule="nonzero"/></clipPath><clipPath id="1b306b151c"><path d="M 605.960938 -138.683594 L 621.117188 -127.285156 C 624.640625 -124.636719 626.96875 -120.695312 627.585938 -116.328125 C 628.203125 -111.960938 627.0625 -107.53125 624.414062 -104.003906 L 237 411.191406 C 234.351562 414.714844 230.410156 417.042969 226.042969 417.660156 C 221.675781 418.28125 217.246094 417.136719 213.71875 414.488281 L 198.566406 403.09375 C 195.042969 400.441406 192.714844 396.5 192.097656 392.136719 C 191.476562 387.769531 192.621094 383.335938 195.269531 379.8125 L 582.683594 -135.386719 C 585.332031 -138.910156 589.273438 -141.238281 593.640625 -141.855469 C 598.007812 -142.472656 602.4375 -141.332031 605.960938 -138.683594 Z M 605.960938 -138.683594 " clip-rule="nonzero"/></clipPath><clipPath id="2190403df7"><path d="M 0.28125 0 L 437 0 L 437 375 L 0.28125 375 Z M 0.28125 0 " clip-rule="nonzero"/></clipPath><clipPath id="e5fbdb52b3"><path d="M 401.675781 -148.675781 L 443.40625 -117.292969 L 35.953125 424.554688 L -5.777344 393.175781 Z M 401.675781 -148.675781 " clip-rule="nonzero"/></clipPath><clipPath id="a29cb8d5b6"><path d="M 414.960938 -138.683594 L 430.117188 -127.285156 C 433.640625 -124.636719 435.96875 -120.695312 436.585938 -116.328125 C 437.203125 -111.960938 436.0625 -107.53125 433.414062 -104.003906 L 46 411.191406 C 43.351562 414.714844 39.410156 417.042969 35.042969 417.660156 C 30.675781 418.28125 26.246094 417.136719 22.71875 414.488281 L 7.566406 403.09375 C 4.042969 400.441406 1.714844 396.5 1.097656 392.136719 C 0.476562 387.769531 1.621094 383.335938 4.269531 379.8125 L 391.683594 -135.386719 C 394.332031 -138.910156 398.273438 -141.238281 402.640625 -141.855469 C 407.007812 -142.472656 411.4375 -141.332031 414.960938 -138.683594 Z M 414.960938 -138.683594 " clip-rule="nonzero"/></clipPath><clipPath id="546381740d"><rect x="0" width="437" y="0" height="375"/></clipPath><clipPath id="fffbc85430"><path d="M 244 0 L 1050 0 L 1050 375 L 244 375 Z M 244 0 " clip-rule="nonzero"/></clipPath><clipPath id="97413872f8"><path d="M 736.835938 -235.585938 L 1205.414062 116.769531 L 705.820312 781.148438 L 237.242188 428.796875 Z M 736.835938 -235.585938 " clip-rule="nonzero"/></clipPath><clipPath id="02c0385fd6"><path d="M 750.125 -225.59375 L 1192.125 106.777344 C 1195.648438 109.429688 1197.976562 113.371094 1198.59375 117.734375 C 1199.210938 122.101562 1198.070312 126.535156 1195.417969 130.058594 L 716.152344 767.410156 C 713.5 770.9375 709.558594 773.261719 705.191406 773.882812 C 700.828125 774.5 696.394531 773.359375 692.871094 770.707031 L 250.871094 438.339844 C 247.34375 435.6875 245.019531 431.746094 244.398438 427.378906 C 243.78125 423.015625 244.921875 418.582031 247.574219 415.058594 L 726.84375 -222.296875 C 729.492188 -225.820312 733.433594 -228.148438 737.800781 -228.765625 C 742.167969 -229.382812 746.597656 -228.242188 750.125 -225.59375 Z M 750.125 -225.59375 " clip-rule="nonzero"/></clipPath><clipPath id="19f8f8943d"><path d="M 0 0 L 806 0 L 806 375 L 0 375 Z M 0 0 " clip-rule="nonzero"/></clipPath><clipPath id="8b8b887c0f"><path d="M 492.835938 -235.585938 L 961.414062 116.769531 L 461.820312 781.148438 L -6.757812 428.796875 Z M 492.835938 -235.585938 " clip-rule="nonzero"/></clipPath><clipPath id="fb1bdf073a"><path d="M 506.125 -225.59375 L 948.125 106.777344 C 951.648438 109.429688 953.976562 113.371094 954.59375 117.734375 C 955.210938 122.101562 954.070312 126.535156 951.417969 130.058594 L 472.152344 767.410156 C 469.5 770.9375 465.558594 773.261719 461.191406 773.882812 C 456.828125 774.5 452.394531 773.359375 448.871094 770.707031 L 6.871094 438.339844 C 3.34375 435.6875 1.019531 431.746094 0.398438 427.378906 C -0.21875 423.015625 0.921875 418.582031 3.574219 415.058594 L 482.84375 -222.296875 C 485.492188 -225.820312 489.433594 -228.148438 493.800781 -228.765625 C 498.167969 -229.382812 502.597656 -228.242188 506.125 -225.59375 Z M 506.125 -225.59375 " clip-rule="nonzero"/></clipPath><clipPath id="7d4bf1ddd1"><rect x="0" width="806" y="0" height="375"/></clipPath><clipPath id="a362271f2b"><path d="M 621.929688 94 L 690 94 L 690 221 L 621.929688 221 Z M 621.929688 94 " clip-rule="nonzero"/></clipPath><clipPath id="96e62b5e28"><path d="M 664.324219 207.316406 L 705.867188 207.316406 L 705.867188 293.792969 L 664.324219 293.792969 Z M 664.324219 207.316406 " clip-rule="nonzero"/></clipPath><clipPath id="421bb170c1"><path d="M 811.050781 156.917969 L 821.429688 156.917969 L 821.429688 194.171875 L 811.050781 194.171875 Z M 811.050781 156.917969 " clip-rule="nonzero"/></clipPath></defs><g clip-path="url(#f4d19b11be)"><g clip-path="url(#c19b50a7ed)"><g clip-path="url(#1b306b151c)"><g transform="matrix(1, 0, 0, 1, 191, 0)"><g clip-path="url(#546381740d)"><g clip-path="url(#2190403df7)"><g clip-path="url(#e5fbdb52b3)"><g clip-path="url(#a29cb8d5b6)"><path fill="#65d09b" d="M 401.675781 -148.675781 L 443.40625 -117.292969 L 35.953125 424.554688 L -5.777344 393.175781 Z M 401.675781 -148.675781 " fill-opacity="1" fill-rule="nonzero"/></g></g></g></g></g></g></g></g><g clip-path="url(#fffbc85430)"><g clip-path="url(#97413872f8)"><g clip-path="url(#02c0385fd6)"><g transform="matrix(1, 0, 0, 1, 244, 0)"><g clip-path="url(#7d4bf1ddd1)"><g clip-path="url(#19f8f8943d)"><g clip-path="url(#8b8b887c0f)"><g clip-path="url(#fb1bdf073a)"><path fill="#65d09b" d="M 492.835938 -235.585938 L 961.414062 116.769531 L 461.820312 781.148438 L -6.757812 428.796875 Z M 492.835938 -235.585938 " fill-opacity="1" fill-rule="nonzero"/></g></g></g></g></g></g></g></g><g clip-path="url(#a362271f2b)"><path fill="#093c5f" d="M 628.480469 219.574219 C 627.347656 215.875 626.429688 212.125 625.730469 208.316406 C 625.703125 208.175781 625.652344 208.046875 625.574219 207.929688 C 625.5 207.808594 625.402344 207.710938 625.285156 207.628906 C 625.167969 207.550781 625.039062 207.496094 624.902344 207.464844 C 624.761719 207.433594 624.621094 207.433594 624.484375 207.457031 C 624.34375 207.484375 624.214844 207.535156 624.09375 207.613281 C 623.972656 207.6875 623.875 207.785156 623.792969 207.902344 C 623.710938 208.019531 623.65625 208.144531 623.628906 208.285156 C 623.597656 208.421875 623.59375 208.5625 623.621094 208.703125 C 624.335938 212.589844 625.273438 216.421875 626.429688 220.199219 C 626.472656 220.335938 626.539062 220.457031 626.628906 220.566406 C 626.71875 220.675781 626.828125 220.765625 626.953125 220.832031 C 627.078125 220.898438 627.210938 220.9375 627.355469 220.949219 C 627.496094 220.964844 627.632812 220.949219 627.769531 220.910156 C 627.90625 220.867188 628.027344 220.800781 628.136719 220.710938 C 628.246094 220.621094 628.335938 220.511719 628.402344 220.386719 C 628.46875 220.261719 628.507812 220.128906 628.523438 219.988281 C 628.535156 219.847656 628.523438 219.710938 628.480469 219.574219 Z M 624.296875 196.816406 C 624.148438 194.566406 624.070312 192.304688 624.070312 190.039062 C 624.070312 188.433594 624.109375 186.828125 624.183594 185.226562 C 624.191406 185.085938 624.171875 184.949219 624.121094 184.816406 C 624.074219 184.683594 624.003906 184.5625 623.90625 184.457031 C 623.8125 184.355469 623.699219 184.269531 623.570312 184.210938 C 623.441406 184.152344 623.308594 184.117188 623.164062 184.109375 C 623.023438 184.105469 622.886719 184.125 622.75 184.171875 C 622.617188 184.222656 622.5 184.292969 622.394531 184.386719 C 622.289062 184.484375 622.203125 184.59375 622.144531 184.722656 C 622.085938 184.851562 622.050781 184.988281 622.042969 185.128906 C 621.964844 186.761719 621.929688 188.398438 621.929688 190.039062 C 621.929688 192.355469 622.003906 194.660156 622.15625 196.960938 C 622.167969 197.101562 622.203125 197.234375 622.265625 197.363281 C 622.328125 197.488281 622.414062 197.597656 622.519531 197.691406 C 622.628906 197.785156 622.75 197.855469 622.882812 197.902344 C 623.019531 197.945312 623.15625 197.964844 623.296875 197.953125 C 623.441406 197.945312 623.574219 197.910156 623.703125 197.847656 C 623.828125 197.785156 623.941406 197.699219 624.035156 197.59375 C 624.128906 197.484375 624.195312 197.367188 624.242188 197.230469 C 624.289062 197.097656 624.304688 196.957031 624.296875 196.816406 Z M 625.394531 173.703125 C 626.019531 169.882812 626.859375 166.113281 627.921875 162.394531 C 627.960938 162.257812 627.972656 162.121094 627.957031 161.980469 C 627.9375 161.839844 627.894531 161.707031 627.828125 161.582031 C 627.757812 161.457031 627.667969 161.351562 627.554688 161.265625 C 627.445312 161.175781 627.320312 161.113281 627.183594 161.074219 C 627.046875 161.035156 626.910156 161.023438 626.765625 161.039062 C 626.625 161.054688 626.492188 161.097656 626.371094 161.167969 C 626.246094 161.238281 626.140625 161.328125 626.050781 161.4375 C 625.960938 161.550781 625.898438 161.671875 625.859375 161.808594 C 624.777344 165.605469 623.914062 169.457031 623.277344 173.359375 C 623.253906 173.5 623.257812 173.636719 623.292969 173.777344 C 623.324219 173.914062 623.382812 174.039062 623.464844 174.15625 C 623.546875 174.269531 623.648438 174.367188 623.769531 174.441406 C 623.890625 174.515625 624.023438 174.5625 624.164062 174.585938 C 624.304688 174.609375 624.441406 174.605469 624.582031 174.570312 C 624.71875 174.539062 624.847656 174.480469 624.960938 174.398438 C 625.078125 174.316406 625.171875 174.214844 625.246094 174.09375 C 625.320312 173.972656 625.371094 173.84375 625.394531 173.703125 Z M 631.746094 151.453125 C 633.230469 147.882812 634.917969 144.40625 636.808594 141.023438 C 636.878906 140.902344 636.921875 140.769531 636.9375 140.628906 C 636.953125 140.488281 636.945312 140.347656 636.90625 140.210938 C 636.867188 140.074219 636.800781 139.953125 636.714844 139.839844 C 636.625 139.730469 636.519531 139.640625 636.394531 139.570312 C 636.273438 139.5 636.140625 139.457031 635.996094 139.441406 C 635.855469 139.425781 635.71875 139.4375 635.582031 139.476562 C 635.445312 139.515625 635.320312 139.578125 635.207031 139.664062 C 635.097656 139.753906 635.007812 139.859375 634.9375 139.984375 C 633.007812 143.4375 631.28125 146.988281 629.765625 150.632812 C 629.710938 150.765625 629.683594 150.902344 629.683594 151.042969 C 629.683594 151.183594 629.710938 151.320312 629.765625 151.453125 C 629.820312 151.582031 629.894531 151.699219 629.996094 151.796875 C 630.097656 151.898438 630.210938 151.976562 630.34375 152.03125 C 630.476562 152.085938 630.613281 152.113281 630.753906 152.113281 C 630.894531 152.113281 631.035156 152.085938 631.164062 152.03125 C 631.296875 151.976562 631.410156 151.898438 631.511719 151.800781 C 631.613281 151.699219 631.691406 151.582031 631.746094 151.453125 Z M 643.042969 131.246094 C 645.308594 128.105469 647.75 125.105469 650.359375 122.242188 C 650.457031 122.136719 650.527344 122.015625 650.578125 121.882812 C 650.625 121.75 650.644531 121.613281 650.636719 121.472656 C 650.632812 121.328125 650.597656 121.195312 650.539062 121.066406 C 650.476562 120.9375 650.394531 120.828125 650.289062 120.730469 C 650.183594 120.636719 650.066406 120.5625 649.929688 120.515625 C 649.796875 120.46875 649.660156 120.449219 649.515625 120.453125 C 649.375 120.460938 649.238281 120.496094 649.109375 120.554688 C 648.984375 120.613281 648.871094 120.699219 648.773438 120.800781 C 646.105469 123.726562 643.617188 126.792969 641.304688 129.996094 C 641.222656 130.113281 641.164062 130.238281 641.132812 130.375 C 641.097656 130.515625 641.09375 130.652344 641.117188 130.792969 C 641.140625 130.933594 641.1875 131.0625 641.261719 131.183594 C 641.335938 131.304688 641.433594 131.40625 641.546875 131.488281 C 641.664062 131.570312 641.789062 131.628906 641.929688 131.660156 C 642.066406 131.695312 642.207031 131.699219 642.347656 131.675781 C 642.488281 131.652344 642.617188 131.605469 642.738281 131.53125 C 642.859375 131.453125 642.960938 131.359375 643.042969 131.246094 Z M 658.660156 114.128906 C 661.582031 111.578125 664.640625 109.207031 667.835938 107.011719 C 667.949219 106.933594 668.046875 106.832031 668.125 106.714844 C 668.203125 106.59375 668.253906 106.464844 668.28125 106.324219 C 668.304688 106.1875 668.304688 106.046875 668.273438 105.910156 C 668.242188 105.769531 668.1875 105.640625 668.109375 105.527344 C 668.027344 105.410156 667.925781 105.3125 667.808594 105.234375 C 667.6875 105.160156 667.558594 105.105469 667.417969 105.082031 C 667.277344 105.054688 667.140625 105.058594 667 105.085938 C 666.863281 105.117188 666.734375 105.171875 666.617188 105.253906 C 663.355469 107.496094 660.234375 109.917969 657.25 112.519531 C 657.140625 112.613281 657.058594 112.722656 656.996094 112.847656 C 656.929688 112.976562 656.894531 113.109375 656.886719 113.25 C 656.875 113.394531 656.894531 113.53125 656.9375 113.664062 C 656.984375 113.800781 657.054688 113.917969 657.148438 114.027344 C 657.242188 114.132812 657.351562 114.21875 657.480469 114.28125 C 657.605469 114.34375 657.742188 114.378906 657.882812 114.390625 C 658.023438 114.398438 658.164062 114.382812 658.296875 114.335938 C 658.433594 114.289062 658.554688 114.222656 658.660156 114.128906 Z M 677.765625 100.992188 C 681.191406 99.171875 684.710938 97.558594 688.324219 96.148438 C 688.457031 96.097656 688.574219 96.023438 688.675781 95.925781 C 688.777344 95.828125 688.859375 95.714844 688.914062 95.582031 C 688.972656 95.453125 689 95.316406 689.003906 95.175781 C 689.007812 95.035156 688.980469 94.898438 688.929688 94.765625 C 688.878906 94.632812 688.804688 94.515625 688.703125 94.414062 C 688.605469 94.3125 688.492188 94.234375 688.363281 94.175781 C 688.230469 94.117188 688.09375 94.089844 687.953125 94.085938 C 687.8125 94.082031 687.675781 94.109375 687.542969 94.160156 C 683.855469 95.597656 680.257812 97.246094 676.757812 99.105469 C 676.632812 99.171875 676.523438 99.257812 676.433594 99.367188 C 676.34375 99.476562 676.277344 99.601562 676.234375 99.734375 C 676.195312 99.871094 676.179688 100.007812 676.195312 100.152344 C 676.207031 100.292969 676.25 100.425781 676.316406 100.550781 C 676.382812 100.675781 676.46875 100.78125 676.578125 100.871094 C 676.6875 100.960938 676.8125 101.027344 676.949219 101.070312 C 677.082031 101.109375 677.222656 101.125 677.363281 101.113281 C 677.503906 101.097656 677.640625 101.058594 677.765625 100.992188 Z M 677.765625 100.992188 " fill-opacity="1" fill-rule="nonzero"/></g><path fill="#093c5f" d="M 782.6875 272.945312 C 779.496094 275.148438 776.191406 277.164062 772.769531 278.984375 C 772.644531 279.050781 772.539062 279.140625 772.449219 279.25 C 772.359375 279.359375 772.292969 279.484375 772.25 279.617188 C 772.210938 279.753906 772.195312 279.890625 772.210938 280.03125 C 772.222656 280.175781 772.265625 280.308594 772.332031 280.433594 C 772.398438 280.558594 772.488281 280.664062 772.597656 280.753906 C 772.707031 280.84375 772.828125 280.910156 772.964844 280.949219 C 773.101562 280.992188 773.242188 281.003906 773.382812 280.992188 C 773.523438 280.976562 773.65625 280.9375 773.78125 280.871094 C 777.273438 279.007812 780.648438 276.953125 783.910156 274.699219 C 784.027344 274.621094 784.125 274.519531 784.199219 274.402344 C 784.277344 274.28125 784.328125 274.152344 784.355469 274.011719 C 784.378906 273.875 784.375 273.734375 784.347656 273.59375 C 784.316406 273.457031 784.261719 273.328125 784.179688 273.214844 C 784.097656 273.097656 784 273 783.878906 272.921875 C 783.761719 272.847656 783.628906 272.796875 783.492188 272.769531 C 783.351562 272.746094 783.210938 272.746094 783.070312 272.777344 C 782.933594 272.808594 782.804688 272.863281 782.6875 272.945312 Z M 762.222656 283.851562 C 758.613281 285.269531 754.933594 286.472656 751.183594 287.464844 C 751.042969 287.503906 750.917969 287.5625 750.808594 287.648438 C 750.695312 287.734375 750.601562 287.839844 750.53125 287.964844 C 750.457031 288.085938 750.414062 288.21875 750.394531 288.359375 C 750.375 288.496094 750.386719 288.636719 750.421875 288.773438 C 750.457031 288.910156 750.519531 289.035156 750.605469 289.148438 C 750.691406 289.261719 750.796875 289.351562 750.917969 289.421875 C 751.042969 289.496094 751.175781 289.539062 751.316406 289.558594 C 751.457031 289.578125 751.59375 289.570312 751.730469 289.53125 C 755.5625 288.519531 759.320312 287.289062 763.007812 285.839844 C 763.140625 285.785156 763.257812 285.710938 763.359375 285.613281 C 763.464844 285.515625 763.542969 285.398438 763.597656 285.269531 C 763.65625 285.140625 763.683594 285.003906 763.6875 284.863281 C 763.691406 284.722656 763.664062 284.585938 763.613281 284.453125 C 763.5625 284.320312 763.484375 284.203125 763.386719 284.101562 C 763.289062 284 763.171875 283.921875 763.042969 283.863281 C 762.914062 283.808594 762.777344 283.777344 762.632812 283.777344 C 762.492188 283.773438 762.355469 283.796875 762.222656 283.851562 Z M 739.796875 289.785156 C 735.964844 290.339844 732.105469 290.671875 728.214844 290.789062 C 728.074219 290.792969 727.9375 290.824219 727.808594 290.882812 C 727.679688 290.941406 727.566406 291.019531 727.46875 291.125 C 727.371094 291.226562 727.296875 291.34375 727.246094 291.476562 C 727.195312 291.609375 727.171875 291.746094 727.175781 291.886719 C 727.179688 292.03125 727.210938 292.164062 727.269531 292.292969 C 727.328125 292.425781 727.410156 292.535156 727.511719 292.632812 C 727.617188 292.730469 727.734375 292.804688 727.867188 292.855469 C 728 292.90625 728.136719 292.929688 728.277344 292.925781 C 732.25 292.808594 736.191406 292.46875 740.101562 291.902344 C 740.242188 291.882812 740.375 291.835938 740.496094 291.761719 C 740.621094 291.691406 740.722656 291.597656 740.808594 291.484375 C 740.894531 291.371094 740.953125 291.246094 740.988281 291.109375 C 741.023438 290.96875 741.03125 290.832031 741.011719 290.691406 C 740.988281 290.550781 740.945312 290.417969 740.871094 290.296875 C 740.796875 290.175781 740.703125 290.074219 740.589844 289.988281 C 740.476562 289.902344 740.351562 289.84375 740.214844 289.808594 C 740.074219 289.773438 739.9375 289.765625 739.796875 289.785156 Z M 739.796875 289.785156 " fill-opacity="1" fill-rule="nonzero"/><path fill="#093c5f" d="M 772.003906 100.6875 C 775.4375 102.480469 778.761719 104.46875 781.972656 106.644531 C 782.089844 106.726562 782.21875 106.777344 782.359375 106.808594 C 782.496094 106.835938 782.636719 106.835938 782.777344 106.8125 C 782.914062 106.785156 783.042969 106.734375 783.164062 106.65625 C 783.28125 106.578125 783.382812 106.480469 783.460938 106.363281 C 783.542969 106.246094 783.597656 106.117188 783.625 105.980469 C 783.652344 105.839844 783.65625 105.699219 783.628906 105.5625 C 783.601562 105.421875 783.550781 105.292969 783.472656 105.175781 C 783.394531 105.058594 783.296875 104.957031 783.179688 104.878906 C 779.898438 102.652344 776.503906 100.625 772.996094 98.792969 C 772.871094 98.730469 772.738281 98.691406 772.597656 98.675781 C 772.457031 98.664062 772.316406 98.679688 772.179688 98.722656 C 772.046875 98.761719 771.921875 98.832031 771.8125 98.921875 C 771.703125 99.011719 771.617188 99.121094 771.550781 99.246094 C 771.484375 99.371094 771.445312 99.503906 771.433594 99.644531 C 771.421875 99.785156 771.433594 99.925781 771.476562 100.058594 C 771.519531 100.195312 771.585938 100.316406 771.679688 100.425781 C 771.769531 100.535156 771.878906 100.621094 772.003906 100.6875 Z M 791.191406 113.703125 C 794.128906 116.230469 796.914062 118.914062 799.542969 121.761719 C 799.640625 121.867188 799.753906 121.949219 799.882812 122.007812 C 800.011719 122.066406 800.144531 122.097656 800.289062 122.105469 C 800.429688 122.109375 800.566406 122.089844 800.699219 122.039062 C 800.835938 121.992188 800.953125 121.917969 801.058594 121.824219 C 801.164062 121.726562 801.246094 121.613281 801.304688 121.488281 C 801.363281 121.359375 801.398438 121.222656 801.402344 121.082031 C 801.410156 120.941406 801.386719 120.800781 801.335938 120.667969 C 801.289062 120.535156 801.214844 120.417969 801.121094 120.3125 C 798.433594 117.40625 795.59375 114.664062 792.59375 112.082031 C 792.484375 111.992188 792.363281 111.921875 792.230469 111.878906 C 792.09375 111.832031 791.957031 111.816406 791.8125 111.828125 C 791.671875 111.835938 791.539062 111.875 791.410156 111.9375 C 791.285156 112 791.171875 112.085938 791.082031 112.195312 C 790.988281 112.300781 790.917969 112.421875 790.875 112.558594 C 790.828125 112.691406 790.8125 112.828125 790.824219 112.972656 C 790.832031 113.113281 790.871094 113.246094 790.933594 113.371094 C 791 113.5 791.085938 113.609375 791.191406 113.703125 Z M 806.917969 130.71875 C 809.207031 133.847656 811.304688 137.09375 813.214844 140.457031 C 813.285156 140.582031 813.375 140.6875 813.488281 140.773438 C 813.601562 140.859375 813.726562 140.921875 813.863281 140.960938 C 814 141 814.136719 141.007812 814.277344 140.992188 C 814.417969 140.976562 814.550781 140.929688 814.675781 140.863281 C 814.800781 140.792969 814.90625 140.699219 814.992188 140.589844 C 815.082031 140.476562 815.144531 140.351562 815.179688 140.21875 C 815.21875 140.082031 815.230469 139.941406 815.210938 139.800781 C 815.195312 139.660156 815.152344 139.527344 815.082031 139.40625 C 813.128906 135.96875 810.984375 132.65625 808.648438 129.460938 C 808.566406 129.34375 808.464844 129.25 808.34375 129.175781 C 808.21875 129.101562 808.089844 129.054688 807.949219 129.035156 C 807.808594 129.011719 807.667969 129.015625 807.53125 129.050781 C 807.394531 129.085938 807.265625 129.140625 807.152344 129.226562 C 807.035156 129.308594 806.941406 129.410156 806.867188 129.53125 C 806.792969 129.652344 806.746094 129.785156 806.722656 129.925781 C 806.703125 130.0625 806.707031 130.203125 806.742188 130.339844 C 806.773438 130.476562 806.832031 130.605469 806.917969 130.71875 Z M 806.917969 130.71875 " fill-opacity="1" fill-rule="nonzero"/><path fill="#cff7e5" d="M 800.1875 190.039062 C 800.1875 231.34375 766.601562 264.828125 725.171875 264.828125 C 683.742188 264.828125 650.15625 231.34375 650.15625 190.039062 C 650.15625 148.734375 683.742188 115.25 725.171875 115.25 C 766.601562 115.25 800.1875 148.734375 800.1875 190.039062 " fill-opacity="1" fill-rule="nonzero"/><path stroke-linecap="round" transform="matrix(0.00948464, 0, 0, -0.00945593, 621.92834, 293.792911)" fill-opacity="1" fill="#ffffff" fill-rule="nonzero" stroke-linejoin="round" d="M 9538.99879 10057.755571 C 8974.764359 10057.755571 8517.199064 10517.123501 8517.199064 11083.071399 C 8517.199064 11649.432398 8974.764359 12108.800328 9538.99879 12108.800328 C 10103.233222 12108.800328 10560.798516 11649.432398 10560.798516 11083.071399 C 10560.798516 10517.123501 10103.233222 10057.755571 9538.99879 10057.755571 " stroke="#093c5f" stroke-width="226.026" stroke-opacity="1" stroke-miterlimit="10"/><path fill="#66d1d1" d="M 692.96875 213.589844 C 693.179688 205.546875 701.28125 202.878906 705.515625 202.878906 C 705.570312 202.878906 705.621094 202.878906 705.671875 202.882812 L 719.535156 202.816406 C 719.5625 202.820312 719.59375 202.816406 719.621094 202.816406 L 719.785156 202.820312 C 726.589844 202.972656 732.074219 208.269531 732.015625 214.628906 L 731.753906 242.804688 C 731.730469 245.203125 729.582031 247.128906 727.019531 247.109375 C 725.339844 247.097656 723.875 246.265625 723.058594 245.027344 L 723.058594 281.464844 C 723.058594 284.566406 720.925781 287.0625 717.535156 287.082031 C 712.957031 287.109375 712.199219 282.363281 712.199219 282.363281 C 712.199219 282.363281 711.382812 286.582031 707.246094 287.09375 C 703.890625 287.511719 700.96875 285.363281 700.96875 282.234375 L 700.96875 245.867188 C 700.109375 246.75 698.871094 247.304688 697.484375 247.304688 L 697.457031 247.304688 C 694.867188 247.292969 692.777344 245.339844 692.789062 242.941406 L 692.96875 213.589844 " fill-opacity="1" fill-rule="nonzero"/><path stroke-linecap="round" transform="matrix(0.00948464, 0, 0, -0.00945593, 621.92834, 293.792911)" fill="none" stroke-linejoin="round" d="M 7490.045289 8481.776569 C 7512.285186 9332.35082 8366.461982 9614.498568 8812.907328 9614.498568 C 8818.673228 9614.498568 8824.027277 9614.498568 8829.381326 9614.085467 L 10291.036799 9621.108178 C 10293.919749 9620.695078 10297.214548 9621.108178 10300.097498 9621.108178 L 10317.395196 9620.695078 C 11034.837809 9604.584152 11613.075139 9044.419663 11606.897389 8371.891795 L 11579.303443 5392.196765 C 11576.832343 5138.552962 11350.314871 4934.894339 11080.141303 4936.959842 C 10903.045825 4938.199144 10748.602094 5026.189584 10662.525454 5157.142491 L 10662.525454 1303.739574 C 10662.525454 975.737653 10437.655381 711.766334 10080.169625 709.700831 C 9597.481483 706.809126 9517.582593 1208.726423 9517.582593 1208.726423 C 9517.582593 1208.726423 9431.505953 762.577715 8995.356856 708.461529 C 8641.577749 664.259759 8333.513986 891.465119 8333.513986 1222.358745 L 8333.513986 5068.32585 C 8242.906997 4974.965102 8112.350563 4916.304809 7966.143831 4916.304809 L 7963.260881 4916.304809 C 7690.204364 4917.544111 7469.864641 5124.094439 7471.100191 5377.738242 Z M 7490.045289 8481.776569 " stroke="#093c5f" stroke-width="226.026" stroke-opacity="1" stroke-miterlimit="10"/><path stroke-linecap="round" transform="matrix(0.00948464, 0, 0, -0.00945593, 621.92834, 293.792911)" fill-opacity="1" fill="#66d1d1" fill-rule="nonzero" stroke-linejoin="round" d="M 10658.818804 8133.945817 L 10662.525454 5157.142491 " stroke="#093c5f" stroke-width="226.026" stroke-opacity="1" stroke-miterlimit="10"/><path stroke-linecap="round" transform="matrix(0.00948464, 0, 0, -0.00945593, 621.92834, 293.792911)" fill="none" stroke-linejoin="round" d="M 8333.513986 8133.945817 L 8333.513986 5068.32585 " stroke="#093c5f" stroke-width="226.026" stroke-opacity="1" stroke-miterlimit="10"/><path stroke-linecap="round" transform="matrix(0.00948464, 0, 0, -0.00945593, 621.92834, 293.792911)" fill="none" stroke-linejoin="round" d="M 9517.582593 5204.235966 L 9517.582593 1208.726423 " stroke="#093c5f" stroke-width="226.026" stroke-opacity="1" stroke-miterlimit="10"/><path fill="#ffffff" d="M 709.226562 224.707031 L 712.199219 227.65625 L 715.171875 224.707031 L 715.171875 202.953125 L 709.226562 202.953125 L 709.226562 224.707031 " fill-opacity="1" fill-rule="nonzero"/><path stroke-linecap="round" transform="matrix(0.00948464, 0, 0, -0.00945593, 621.92834, 293.792911)" fill="none" stroke-linejoin="round" d="M 9204.164781 7306.092103 L 9517.582593 6994.201108 L 9831.000405 7306.092103 L 9831.000405 9606.649655 L 9204.164781 9606.649655 Z M 9204.164781 7306.092103 " stroke="#093c5f" stroke-width="226.026" stroke-opacity="1" stroke-miterlimit="10"/><path stroke-linecap="round" transform="matrix(0.00948464, 0, 0, -0.00945593, 621.92834, 293.792911)" fill-opacity="1" fill="#ffffff" fill-rule="nonzero" stroke-linejoin="round" d="M 3778.865389 10057.755571 C 4343.09982 10057.755571 4800.665115 10517.123501 4800.665115 11083.071399 C 4800.665115 11649.432398 4343.09982 12108.800328 3778.865389 12108.800328 C 3214.630957 12108.800328 2757.065663 11649.432398 2757.065663 11083.071399 C 2757.065663 10517.123501 3214.630957 10057.755571 3778.865389 10057.755571 " stroke="#093c5f" stroke-width="226.026" stroke-opacity="1" stroke-miterlimit="10"/><path fill="#ffd349" d="M 677.203125 213.589844 C 676.992188 205.546875 668.890625 202.878906 664.65625 202.878906 C 664.605469 202.878906 664.550781 202.878906 664.5 202.882812 L 650.640625 202.816406 C 650.609375 202.820312 650.582031 202.816406 650.550781 202.816406 L 650.386719 202.820312 C 643.585938 202.972656 638.097656 208.269531 638.15625 214.628906 L 638.417969 242.804688 C 638.441406 245.203125 640.589844 247.128906 643.152344 247.109375 C 644.835938 247.097656 646.296875 246.265625 647.117188 245.027344 L 647.117188 281.464844 C 647.113281 284.566406 649.246094 287.0625 652.636719 287.082031 C 657.21875 287.109375 657.976562 282.363281 657.976562 282.363281 C 657.976562 282.363281 658.789062 286.582031 662.925781 287.09375 C 666.28125 287.511719 669.203125 285.363281 669.203125 282.234375 L 669.203125 245.867188 C 670.0625 246.75 671.304688 247.304688 672.6875 247.304688 L 672.714844 247.304688 C 675.308594 247.292969 677.398438 245.339844 677.382812 242.941406 L 677.203125 213.589844 " fill-opacity="1" fill-rule="nonzero"/><path stroke-linecap="round" transform="matrix(0.00948464, 0, 0, -0.00945593, 621.92834, 293.792911)" fill="none" stroke-linejoin="round" d="M 5827.81889 8481.776569 C 5805.578993 9332.35082 4951.402197 9614.498568 4504.956851 9614.498568 C 4499.602801 9614.498568 4493.836902 9614.498568 4488.482853 9614.085467 L 3027.23923 9621.108178 C 3023.94443 9620.695078 3021.061481 9621.108178 3017.766681 9621.108178 L 3000.468983 9620.695078 C 2283.43822 9604.584152 1704.78904 9044.419663 1710.96679 8371.891795 L 1738.560736 5392.196765 C 1741.031836 5138.552962 1967.549308 4934.894339 2237.722876 4936.959842 C 2415.230204 4938.199144 2569.262085 5026.189584 2655.750575 5157.142491 L 2655.750575 1303.739574 C 2655.338725 975.737653 2880.208798 711.766334 3237.694554 709.700831 C 3720.794546 706.809126 3800.693436 1208.726423 3800.693436 1208.726423 C 3800.693436 1208.726423 3886.358226 762.577715 4322.507323 708.461529 C 4676.28643 664.259759 4984.350193 891.465119 4984.350193 1222.358745 L 4984.350193 5068.32585 C 5074.957182 4974.965102 5205.925466 4916.304809 5351.720348 4916.304809 L 5354.603298 4916.304809 C 5628.071665 4917.544111 5848.411388 5124.094439 5846.763988 5377.738242 Z M 5827.81889 8481.776569 " stroke="#093c5f" stroke-width="226.026" stroke-opacity="1" stroke-miterlimit="10"/><path stroke-linecap="round" transform="matrix(0.00948464, 0, 0, -0.00945593, 621.92834, 293.792911)" fill-opacity="1" fill="#66d1d1" fill-rule="nonzero" stroke-linejoin="round" d="M 2659.457225 8133.945817 L 2655.750575 5157.142491 " stroke="#093c5f" stroke-width="226.026" stroke-opacity="1" stroke-miterlimit="10"/><path stroke-linecap="round" transform="matrix(0.00948464, 0, 0, -0.00945593, 621.92834, 293.792911)" fill="none" stroke-linejoin="round" d="M 4984.350193 8133.945817 L 4984.350193 5068.32585 " stroke="#093c5f" stroke-width="226.026" stroke-opacity="1" stroke-miterlimit="10"/><path stroke-linecap="round" transform="matrix(0.00948464, 0, 0, -0.00945593, 621.92834, 293.792911)" fill="none" stroke-linejoin="round" d="M 3800.693436 5204.235966 L 3800.693436 1208.726423 " stroke="#093c5f" stroke-width="226.026" stroke-opacity="1" stroke-miterlimit="10"/><path fill="#ffffff" d="M 660.949219 224.707031 L 657.976562 227.65625 L 655.003906 224.707031 L 655.003906 202.953125 L 660.949219 202.953125 L 660.949219 224.707031 " fill-opacity="1" fill-rule="nonzero"/><path stroke-linecap="round" transform="matrix(0.00948464, 0, 0, -0.00945593, 621.92834, 293.792911)" fill="none" stroke-linejoin="round" d="M 4114.111248 7306.092103 L 3800.693436 6994.201108 L 3487.275624 7306.092103 L 3487.275624 9606.649655 L 4114.111248 9606.649655 Z M 4114.111248 7306.092103 " stroke="#093c5f" stroke-width="226.026" stroke-opacity="1" stroke-miterlimit="10"/><path stroke-linecap="round" transform="matrix(0.00948464, 0, 0, -0.00945593, 621.92834, 293.792911)" fill-opacity="1" fill="#ffffff" fill-rule="nonzero" stroke-linejoin="round" d="M 6659.755789 9467.847835 C 7223.990221 9467.847835 7681.143666 9927.215764 7681.143666 10493.576763 C 7680.731816 11059.937762 7223.166521 11518.892591 6658.93209 11518.47949 C 6094.697658 11518.47949 5637.544213 11059.111561 5637.544213 10492.750562 C 5637.956063 9926.389563 6095.521358 9467.434734 6659.755789 9467.847835 " stroke="#093c5f" stroke-width="226.026" stroke-opacity="1" stroke-miterlimit="10"/><path fill="#ff8c64" d="M 704.53125 219.164062 C 704.320312 211.121094 696.214844 208.457031 691.980469 208.457031 C 691.929688 208.457031 691.878906 208.457031 691.824219 208.457031 L 677.964844 208.398438 C 677.933594 208.402344 677.90625 208.402344 677.875 208.402344 L 677.710938 208.402344 C 670.910156 208.554688 665.425781 213.855469 665.488281 220.214844 L 665.757812 248.394531 C 665.78125 250.792969 667.929688 252.714844 670.496094 252.695312 C 672.175781 252.679688 673.636719 251.847656 674.457031 250.613281 L 674.46875 287.046875 C 674.46875 290.148438 676.601562 292.644531 679.992188 292.664062 C 684.574219 292.6875 685.328125 287.941406 685.328125 287.941406 C 685.328125 287.941406 686.144531 292.164062 690.28125 292.671875 C 693.636719 293.085938 696.558594 290.9375 696.558594 287.808594 L 696.542969 251.441406 C 697.402344 252.324219 698.644531 252.882812 700.03125 252.882812 L 700.058594 252.882812 C 702.648438 252.867188 704.738281 250.910156 704.722656 248.515625 L 704.53125 219.164062 " fill-opacity="1" fill-rule="nonzero"/><g clip-path="url(#96e62b5e28)"><path stroke-linecap="round" transform="matrix(0.00948464, 0, 0, -0.00945593, 621.92834, 293.79288)" fill="none" stroke-linejoin="round" d="M 8709.121141 7892.279435 C 8686.881244 8742.853772 7832.292597 9024.588448 7385.847251 9024.588448 C 7380.493202 9024.588448 7375.139153 9024.588448 7369.373253 9024.588448 L 5908.129631 9030.784958 C 5904.834831 9030.371858 5901.951881 9030.371858 5898.657082 9030.371858 L 5881.359384 9030.371858 C 5164.328621 9014.26093 4586.091291 8453.683284 4592.68089 7781.155348 L 4621.098537 4801.046914 C 4623.569636 4547.403086 4850.087109 4344.157542 5120.672526 4346.223046 C 5297.768005 4347.875449 5451.799886 4435.865897 5538.288375 4566.405718 L 5539.523925 713.41551 C 5539.523925 385.413556 5764.393998 121.44221 6121.879755 119.376706 C 6604.979746 116.898102 6684.466786 618.81545 6684.466786 618.81545 C 6684.466786 618.81545 6770.543426 172.253596 7206.692523 118.550505 C 7560.47163 74.761831 7868.535393 301.967215 7868.535393 632.860874 L 7866.887993 4478.82837 C 7957.494982 4385.467612 8088.463266 4326.394212 8234.669998 4326.394212 L 8237.552948 4326.394212 C 8510.609465 4328.046615 8730.949188 4535.010065 8729.301788 4788.240792 Z M 8709.121141 7892.279435 " stroke="#093c5f" stroke-width="226.026" stroke-opacity="1" stroke-miterlimit="10"/></g><path stroke-linecap="round" transform="matrix(0.00948464, 0, 0, -0.00945593, 621.92834, 293.792911)" fill-opacity="1" fill="#66d1d1" fill-rule="nonzero" stroke-linejoin="round" d="M 5540.759475 7543.211879 L 5538.288375 4566.408554 " stroke="#093c5f" stroke-width="226.026" stroke-opacity="1" stroke-miterlimit="10"/><path stroke-linecap="round" transform="matrix(0.00948464, 0, 0, -0.00945593, 621.92834, 293.792911)" fill-opacity="1" fill="#66d1d1" fill-rule="nonzero" stroke-linejoin="round" d="M 7866.064293 7544.038081 L 7866.887993 4478.831215 " stroke="#093c5f" stroke-width="226.026" stroke-opacity="1" stroke-miterlimit="10"/><path stroke-linecap="round" transform="matrix(0.00948464, 0, 0, -0.00945593, 621.92834, 293.792911)" fill-opacity="1" fill="#66d1d1" fill-rule="nonzero" stroke-linejoin="round" d="M 6683.231237 4613.915129 L 6684.466786 618.818687 " stroke="#093c5f" stroke-width="226.026" stroke-opacity="1" stroke-miterlimit="10"/><path fill="#ffffff" d="M 688.285156 233.300781 L 685.3125 236.621094 L 682.339844 233.300781 L 682.339844 208.417969 L 688.285156 208.441406 L 688.285156 233.300781 " fill-opacity="1" fill-rule="nonzero"/><path stroke-linecap="round" transform="matrix(0.00948464, 0, 0, -0.00945593, 621.92834, 293.792911)" fill="none" stroke-linejoin="round" d="M 6996.237199 6397.27066 L 6682.819387 6046.135103 L 6369.401575 6397.27066 L 6369.401575 9028.721838 L 6996.237199 9026.243234 Z M 6996.237199 6397.27066 " stroke="#093c5f" stroke-width="226.026" stroke-opacity="1" stroke-miterlimit="10"/><path stroke-linecap="round" transform="matrix(0.00948464, 0, 0, -0.00945593, 621.92834, 293.792911)" fill-opacity="1" fill="#ffd349" fill-rule="nonzero" stroke-linejoin="round" d="M 7429.915196 16107.614676 L 5558.880873 14393.660055 C 5097.608929 13971.471185 5066.308333 13255.567748 5488.454531 12794.547416 C 5911.01258 12333.940185 6626.807793 12302.544535 7087.667888 12724.733405 L 8958.702211 14438.688026 " stroke="#093c5f" stroke-width="226.026" stroke-opacity="1" stroke-miterlimit="10"/><path stroke-linecap="round" transform="matrix(0.00948464, 0, 0, -0.00945593, 621.92834, 293.792911)" fill-opacity="1" fill="#ff8c64" fill-rule="nonzero" stroke-linejoin="round" d="M 7762.278106 16912.334754 L 7144.503181 16324.49252 C 7029.597045 16219.564954 7021.771896 16041.10547 7126.793633 15926.676589 L 8751.129836 14153.235473 C 8856.563423 14038.393491 9034.482601 14030.544578 9148.976888 14135.885246 L 9780.754711 14727.858486 " stroke="#093c5f" stroke-width="226.026" stroke-opacity="1" stroke-miterlimit="10"/><path fill="#66d1d1" d="M 693.136719 118.867188 C 692.226562 139.621094 708.359375 157.183594 729.171875 158.09375 C 749.988281 159.003906 767.601562 142.917969 768.515625 122.164062 C 769.429688 101.414062 753.292969 83.851562 732.480469 82.941406 C 711.664062 82.03125 694.050781 98.117188 693.136719 118.867188 " fill-opacity="1" fill-rule="nonzero"/><path stroke-linecap="round" transform="matrix(0.00948464, 0, 0, -0.00945593, 621.92834, 293.792911)" fill="none" stroke-linejoin="round" d="M 7507.754837 18499.054373 C 7411.793798 16304.250588 9112.734092 14446.95004 11307.070626 14350.697587 C 13501.81901 14254.445134 15358.850434 15955.593635 15455.223323 18150.397419 C 15551.596211 20344.788103 13850.244067 22202.088651 11655.907533 22298.341104 C 9461.15915 22394.593557 7604.127725 20693.445056 7507.754837 18499.054373 Z M 7507.754837 18499.054373 " stroke="#093c5f" stroke-width="226.026" stroke-opacity="1" stroke-miterlimit="10"/><path fill="#ffffff" d="M 708.707031 120.519531 C 708.707031 132.695312 718.609375 142.570312 730.824219 142.570312 C 743.042969 142.570312 752.945312 132.695312 752.945312 120.519531 C 752.945312 108.339844 743.042969 98.464844 730.824219 98.464844 C 718.609375 98.464844 708.707031 108.339844 708.707031 120.519531 " fill-opacity="1" fill-rule="nonzero"/><path stroke-linecap="round" transform="matrix(0.00948464, 0, 0, -0.00945593, 621.92834, 293.792911)" fill="none" stroke-linejoin="round" d="M 9149.388737 18324.312795 C 9149.388737 17036.678051 10193.428361 15992.359593 11481.283155 15992.359593 C 12769.549798 15992.359593 13813.589422 17036.678051 13813.589422 18324.312795 C 13813.589422 19612.36064 12769.549798 20656.679098 11481.283155 20656.679098 C 10193.428361 20656.679098 9149.388737 19612.36064 9149.388737 18324.312795 Z M 9149.388737 18324.312795 " stroke="#093c5f" stroke-width="226.026" stroke-opacity="1" stroke-miterlimit="10"/><path fill="#ffd349" d="M 751.546875 104.921875 C 749.683594 103.0625 746.667969 103.0625 744.804688 104.921875 L 729.933594 119.746094 L 724.40625 114.242188 C 722.542969 112.382812 719.523438 112.382812 717.664062 114.242188 C 715.800781 116.097656 715.800781 119.105469 717.664062 120.964844 L 726.15625 129.429688 C 727.1875 130.460938 728.578125 130.898438 729.933594 130.785156 C 731.285156 130.898438 732.671875 130.460938 733.707031 129.429688 L 751.546875 111.644531 C 753.410156 109.785156 753.410156 106.777344 751.546875 104.921875 " fill-opacity="1" fill-rule="nonzero"/><path stroke-linecap="round" transform="matrix(0.00948464, 0, 0, -0.00945593, 621.92834, 293.792911)" fill="none" stroke-linejoin="round" d="M 13666.14714 19973.823714 C 13469.694714 20170.459626 13151.746552 20170.459626 12955.294126 19973.823714 L 11387.381366 18406.106725 L 10804.613687 18988.165549 C 10608.161261 19184.801461 10289.801249 19184.801461 10093.760673 18988.165549 C 9897.308247 18791.942738 9897.308247 18473.855233 10093.760673 18277.21932 L 10989.122464 17382.030199 C 11097.850851 17272.971626 11244.469433 17226.704353 11387.381366 17238.684272 C 11529.881449 17226.704353 11676.088181 17272.971626 11785.228418 17382.030199 L 13666.14714 19262.877485 C 13862.599566 19459.513397 13862.599566 19777.600902 13666.14714 19973.823714 Z M 13666.14714 19973.823714 " stroke="#093c5f" stroke-width="226.026" stroke-opacity="1" stroke-miterlimit="10"/><path fill="#ffffff" d="M 812.167969 158.109375 C 812.511719 158.054688 812.867188 158.03125 813.226562 158.03125 C 817.167969 158.03125 820.359375 161.214844 820.359375 165.140625 C 820.359375 166.035156 820.195312 166.886719 819.894531 167.675781 L 819.886719 167.671875 L 812.164062 193.0625 " fill-opacity="1" fill-rule="nonzero"/><g clip-path="url(#421bb170c1)"><path stroke-linecap="round" transform="matrix(0.00948464, 0, 0, -0.00945593, 621.92834, 293.79288)" fill="none" stroke-linejoin="round" d="M 20057.646515 14349.043341 C 20093.88931 14354.826751 20131.367656 14357.305355 20169.257851 14357.305355 C 20584.814451 14357.305355 20921.29586 14020.628287 20921.29586 13605.462085 C 20921.29586 13510.862026 20903.998162 13420.806074 20872.285716 13337.359733 L 20871.462016 13337.772833 L 20057.234665 10652.618298 " stroke="#093c5f" stroke-width="226.026" stroke-opacity="1" stroke-miterlimit="4"/></g><path stroke-linecap="round" transform="matrix(0.00948464, 0, 0, -0.00945593, 621.92834, 293.792911)" fill-opacity="1" fill="#ffffff" fill-rule="nonzero" stroke-linejoin="round" d="M 18655.297435 15107.911089 C 18785.853869 15331.398544 19028.021639 15481.354082 19305.196656 15481.354082 C 19720.753255 15481.354082 20057.234665 15144.677047 20057.234665 14729.510888 L 20057.234665 10652.620516 " stroke="#093c5f" stroke-width="226.026" stroke-opacity="1" stroke-miterlimit="4"/><path stroke-linecap="round" transform="matrix(0.00948464, 0, 0, -0.00945593, 621.92834, 293.792911)" fill-opacity="1" fill="#ffffff" fill-rule="nonzero" stroke-linejoin="round" d="M 20057.234665 5222.412395 L 20057.234665 10652.620516 L 18542.038698 15481.354082 L 18542.862398 15481.767182 C 18482.732306 15837.033746 18173.844843 16107.201575 17801.944338 16107.614676 C 17402.449887 16108.027777 17063.085528 15781.265158 17049.494479 15382.209924 C 17044.96413 15254.974922 17072.558077 15134.349531 17124.03932 15028.182662 L 17988.924215 12407.472102 L 17989.336065 12407.885202 C 17443.223032 13166.751107 16552.39159 13661.232592 15545.830312 13661.232592 C 14215.143123 13661.232592 13086.26241 12797.02602 12689.239058 11599.447219 C 12534.795327 11132.643478 12894.340333 10652.620516 13386.501024 10652.620516 L 13434.275618 10652.620516 C 13750.16453 10652.620516 14021.985497 10859.170844 14128.242784 11157.016417 C 14353.112856 11789.886621 14990.244729 12227.773316 15717.159891 12147.631789 C 16406.596707 12071.208168 16964.24154 11513.935383 17040.43378 10824.057288 C 17140.513318 9916.888248 16432.955104 9148.521028 15545.830312 9148.521028 C 14891.400741 9148.521028 14334.991459 9566.165791 14127.830934 10149.463917 C 14021.985497 10446.896389 13750.16453 10652.620516 13434.275618 10652.620516 L 13386.912874 10652.620516 C 12890.221834 10652.620516 12534.795327 10166.401044 12692.945708 9695.466296 C 12855.626438 9210.899227 16885.990049 3297.363339 16885.990049 3297.363339 " stroke="#093c5f" stroke-width="226.026" stroke-opacity="1" stroke-miterlimit="4"/><path stroke-linecap="round" transform="matrix(0.00948464, 0, 0, -0.00945593, 621.92834, 293.792911)" fill-opacity="1" fill="#ffffff" fill-rule="nonzero" stroke-linejoin="round" d="M 18546.569048 10439.460577 C 18597.638442 11175.605946 18383.064618 11860.526833 17989.336065 12407.885202 " stroke="#093c5f" stroke-width="226.026" stroke-opacity="1" stroke-miterlimit="4"/></svg>